<svg aria-hidden="true" focusable="false" role="img" viewBox="0 0 20 20" class="" fill="none" stroke="#fff" stroke-linecap="round" stroke-linejoin="round"><path d="M5.879 2.625h8.242a3.254 3.254 0 0 1 3.254 3.254v8.242a3.254 3.254 0 0 1-3.254 3.254H5.88a3.254 3.254 0 0 1-3.254-3.254V5.88a3.254 3.254 0 0 1 3.254-3.254Z" stroke="#fff" stroke-width="1.25"></path><mask id="FillHachureIcon" maskUnits="userSpaceOnUse" x="2" y="2" width="16" height="16" style="mask-type: alpha;"><path d="M5.879 2.625h8.242a3.254 3.254 0 0 1 3.254 3.254v8.242a3.254 3.254 0 0 1-3.254 3.254H5.88a3.254 3.254 0 0 1-3.254-3.254V5.88a3.254 3.254 0 0 1 3.254-3.254Z" fill="#fff" stroke="#fff" stroke-width="1.25"></path></mask><g mask="url(#FillHachureIcon)"><path d="M2.258 15.156 15.156 2.258M7.324 20.222 20.222 7.325m-20.444 5.35L12.675-.222m-8.157 18.34L17.416 5.22" stroke="#fff" stroke-width="1.25" stroke-linecap="round" stroke-linejoin="round"></path></g></svg>