<svg xmlns="http://www.w3.org/2000/svg" height="24" viewBox="0 -960 960 960" width="24" fill="#fff"><path d="M507.384-60.002q-79.692 0-149.384-37.307-69.692-37.308-113.384-103.923L72.617-464.385l15.538-15.538q15.385-15.999 37.576-18.23 22.192-2.231 40.423 10.538l133.847 90.232v-382.616q0-12.384 8.625-21.191 8.625-8.808 21.375-8.808 12.384 0 21.192 8.808Q360-792.383 360-779.999v497.767L189.691-398.31l105.385 162.617q35 54.462 91.321 85.077Q442.719-120 507.384-120q104.917 0 178.767-73.462Q760-266.923 760-372.231v-377.768q0-12.385 8.625-21.192 8.625-8.808 21.374-8.808 12.385 0 21.192 8.808 8.808 8.807 8.808 21.192v377.768q0 130.413-91.021 221.321-91.02 90.909-221.594 90.909ZM453.463-490v-369.998q0-12.384 8.628-21.191 8.629-8.808 21.384-8.808 12.756 0 21.371 8.808 8.615 8.807 8.615 21.191v369.998h-59.998Zm153.461 0v-329.998q0-12.384 8.628-21.191 8.629-8.808 21.384-8.808 12.756 0 21.371 8.808 8.615 8.807 8.615 21.191v329.998h-59.998ZM474.845-305Z"/></svg>